<svg width="69" height="71" viewBox="0 0 69 71" fill="none" xmlns="http://www.w3.org/2000/svg">
<path fill-rule="evenodd" clip-rule="evenodd" d="M31.1763 32.5884H36.2202C37.6642 32.5884 38.4141 32.1765 38.8404 31.7099C39.3054 31.2009 39.8239 30.1459 39.8239 28.0371C39.8239 25.9283 39.3054 24.8733 38.8404 24.3643C38.414 23.8977 37.6642 23.4857 36.2203 23.4857L31.1763 23.4858V32.5884ZM36.2202 20.4857L30.1762 20.4858C29.0717 20.4858 28.1763 21.3813 28.1763 22.4858V33.5884C28.1763 34.693 29.0717 35.5884 30.1763 35.5884H36.2202C40.3083 35.5884 42.8239 33.159 42.8239 28.0371C42.8239 22.9153 40.3083 20.4857 36.2202 20.4857Z" fill="#DFDFDF"/>
<path fill-rule="evenodd" clip-rule="evenodd" d="M18 12.0002C18 10.3433 19.3431 9.00019 21 9.00019H38.7232C42.5656 9.00019 46.0478 10.5102 48.7106 13.1999C50.6143 15.1227 52.0862 17.6342 52.9879 20.6015C53.6452 22.7648 54 25.1712 54 27.7745V28.1684C54 39.3296 47.2215 47.074 38.2201 47.074H31.1761C30.6239 47.074 30.1761 47.5217 30.1761 48.074V59.0002C30.1761 60.657 28.833 62.0002 27.1761 62.0002H21C19.3431 62.0002 18 60.657 18 59.0002V31.5002C18 30.9701 18.071 30.4876 18.2322 30.098C18.3565 29.7974 18.7227 29.1403 19.5 29.1403C20.2773 29.1403 20.6435 29.7974 20.7678 30.098C20.929 30.4876 21 30.9701 21 31.5002V58.0002C21 58.5525 21.4477 59.0002 22 59.0002H26.1761C26.7284 59.0002 27.1761 58.5525 27.1761 58.0002V47.074C27.1761 45.4172 28.5193 44.074 30.1761 44.074H37.2201C41.1156 44.074 44.5359 42.6397 46.9882 39.9814C49.444 37.3196 51 33.3515 51 28.1684V27.7745C51 25.3524 50.6699 23.1432 50.0743 21.183C49.2572 18.4942 47.9414 16.2756 46.2893 14.607C44.1124 12.4081 41.2536 12.0002 37.7232 12.0002H22C21.4477 12.0002 21 12.4479 21 13.0002V17.5002C21 18.0303 20.929 18.5128 20.7678 18.9023C20.6435 19.203 20.2773 19.8601 19.5 19.8601C18.7227 19.8601 18.3565 19.203 18.2322 18.9023C18.071 18.5128 18 18.0303 18 17.5002V12.0002ZM20.7678 22.9113C20.929 23.3008 21 23.7833 21 24.3134V25.0002C21 25.5303 20.929 26.0128 20.7678 26.4023C20.6435 26.703 20.2773 27.3601 19.5 27.3601C18.7227 27.3601 18.3565 26.703 18.2322 26.4023C18.1068 26.0993 18.036 25.7401 18.0107 25.346H18V24.3134C18 23.7833 18.071 23.3008 18.2322 22.9113C18.3565 22.6106 18.7227 21.9535 19.5 21.9535C20.2773 21.9535 20.6435 22.6106 20.7678 22.9113Z" fill="#DFDFDF"/>
<path d="M69 49.746V48.0621C69 47.3455 68.5728 46.4142 67.6207 46.4142C66.6685 46.4142 66.2414 47.3455 66.2414 48.0621L66.2414 49.746C66.2414 50.4625 66.6685 51.3938 67.6207 51.3938C68.5728 51.3938 69 50.4625 69 49.746Z" fill="#DFDFDF"/>
<path d="M66.2414 41.0001C66.2414 41.7167 66.6685 42.648 67.6207 42.648C68.5728 42.648 69 41.7167 69 41.0001V4.38818C68.9852 1.97865 67.043 0.0144655 64.6464 0.0001297L64.6451 0.00012207L4.41572 0.000124434C3.09301 0.000124319 1.9024 0.581011 1.09173 1.50012C0.416136 2.2661 0.0044077 3.26698 5.43963e-06 4.36234L0 66.5844C-2.11786e-07 69.007 1.94854 70.9864 4.35485 71.0001L64.5843 71.0001C65.907 71.0001 67.0976 70.4192 67.9082 69.5001C68.5838 68.7341 68.9956 67.7332 69 66.6379V57.0001C69 56.2835 68.5728 55.3522 67.6207 55.3522C66.6685 55.3522 66.2414 56.2835 66.2414 57.0001L66.2414 66.612C66.2414 67.5206 65.4908 68.2648 64.5843 68.2648L4.41656 68.2648C3.50802 68.2648 2.76379 67.5143 2.76379 66.6077L2.75874 4.36676C2.76964 3.52815 3.41973 2.83425 4.2373 2.74509L64.7618 2.74509C65.586 2.83543 66.234 3.54364 66.2362 4.38818H66.2414V41.0001Z" fill="#DFDFDF"/>
<path fill-rule="evenodd" clip-rule="evenodd" d="M31.1763 32.5884H36.2202C37.6642 32.5884 38.4141 32.1765 38.8404 31.7099C39.3054 31.2009 39.8239 30.1459 39.8239 28.0371C39.8239 25.9283 39.3054 24.8733 38.8404 24.3643C38.414 23.8977 37.6642 23.4857 36.2203 23.4857L31.1763 23.4858V32.5884ZM36.2202 20.4857L30.1762 20.4858C29.0717 20.4858 28.1763 21.3813 28.1763 22.4858V33.5884C28.1763 34.693 29.0717 35.5884 30.1763 35.5884H36.2202C40.3083 35.5884 42.8239 33.159 42.8239 28.0371C42.8239 22.9153 40.3083 20.4857 36.2202 20.4857Z" fill="#F2AF3C"/>
<path fill-rule="evenodd" clip-rule="evenodd" d="M18 12.0002C18 10.3433 19.3431 9.00019 21 9.00019H38.7232C42.5656 9.00019 46.0478 10.5102 48.7106 13.1999C50.6143 15.1227 52.0862 17.6342 52.9879 20.6015C53.6452 22.7648 54 25.1712 54 27.7745V28.1684C54 39.3296 47.2215 47.074 38.2201 47.074H31.1761C30.6239 47.074 30.1761 47.5217 30.1761 48.074V59.0002C30.1761 60.657 28.833 62.0002 27.1761 62.0002H21C19.3431 62.0002 18 60.657 18 59.0002V31.5002C18 30.9701 18.071 30.4876 18.2322 30.098C18.3565 29.7974 18.7227 29.1403 19.5 29.1403C20.2773 29.1403 20.6435 29.7974 20.7678 30.098C20.929 30.4876 21 30.9701 21 31.5002V58.0002C21 58.5525 21.4477 59.0002 22 59.0002H26.1761C26.7284 59.0002 27.1761 58.5525 27.1761 58.0002V47.074C27.1761 45.4172 28.5193 44.074 30.1761 44.074H37.2201C41.1156 44.074 44.5359 42.6397 46.9882 39.9814C49.444 37.3196 51 33.3515 51 28.1684V27.7745C51 25.3524 50.6699 23.1432 50.0743 21.183C49.2572 18.4942 47.9414 16.2756 46.2893 14.607C44.1124 12.4081 41.2536 12.0002 37.7232 12.0002H22C21.4477 12.0002 21 12.4479 21 13.0002V17.5002C21 18.0303 20.929 18.5128 20.7678 18.9023C20.6435 19.203 20.2773 19.8601 19.5 19.8601C18.7227 19.8601 18.3565 19.203 18.2322 18.9023C18.071 18.5128 18 18.0303 18 17.5002V12.0002Z" fill="#F2AF3C"/>
<path d="M69 49.746V48.0621C69 47.3455 68.5728 46.4142 67.6207 46.4142C66.6685 46.4142 66.2414 47.3455 66.2414 48.0621L66.2414 49.746C66.2414 50.4625 66.6685 51.3938 67.6207 51.3938C68.5728 51.3938 69 50.4625 69 49.746Z" fill="#F2AF3C"/>
</svg>
