<svg width="70" height="60" viewBox="0 0 70 60" fill="none" xmlns="http://www.w3.org/2000/svg">
<path d="M54.9609 17.1428C54.2062 17.1428 53.5938 17.7828 53.5938 18.5714C53.5938 19.36 54.2062 20 54.9609 20C55.7156 20 56.3281 19.36 56.3281 18.5714C56.3281 17.7828 55.7156 17.1428 54.9609 17.1428Z" fill="#DFDFDF"/>
<path d="M65.8984 11.4286H50.884L46.5492 2.36957C45.8496 0.908 44.4438 0 42.8805 0H27.1195C25.5559 0 24.1501 0.908 23.4508 2.36971L19.116 11.4286H16.4062V10C16.4062 7.63686 14.5663 5.71429 12.3047 5.71429H9.57031C7.30871 5.71429 5.46875 7.63686 5.46875 10V11.4286H4.10156C1.83996 11.4286 0 13.3511 0 15.7143C0 19.5964 0 54.2041 0 55.7143C0 58.0774 1.83996 60 4.10156 60H65.8984C68.16 60 70 58.0774 70 55.7143C70 51.8321 70 17.2244 70 15.7143C70 13.3511 68.16 11.4286 65.8984 11.4286ZM25.8966 3.64743C26.1298 3.16 26.5984 2.85714 27.1195 2.85714H42.8805C43.4016 2.85714 43.8703 3.16 44.1036 3.64743L47.827 11.4286H22.173L25.8966 3.64743ZM8.20312 10C8.20312 9.21229 8.81645 8.57143 9.57031 8.57143H12.3047C13.0586 8.57143 13.6719 9.21229 13.6719 10V11.4286H8.20312V10ZM2.73438 25.7H20.0226C18.2056 28.6659 17.2266 32.1417 17.2266 35.7143C17.2266 39.2871 18.2057 42.749 20.0225 45.7143H2.73438V25.7ZM35 20C43.2213 20 50.0391 26.9599 50.0391 35.7143C50.0391 44.4589 43.2309 51.4286 35 51.4286C26.7617 51.4286 19.9609 44.4511 19.9609 35.7143C19.9609 26.9707 26.7682 20 35 20ZM67.2656 55.7143C67.2656 56.502 66.6523 57.1429 65.8984 57.1429H4.10156C3.3477 57.1429 2.73438 56.502 2.73438 55.7143V48.5714H22.1793C25.5201 52.2103 30.1567 54.2857 35 54.2857C39.8441 54.2857 44.4812 52.2097 47.8208 48.5714H67.2656V55.7143ZM67.2656 45.7143H49.9774C51.7944 42.7484 52.7734 39.287 52.7734 35.7143C52.7734 32.1416 51.7944 28.6801 49.9774 25.7143H67.2656V45.7143ZM67.2656 22.8571H47.8207C44.4801 19.2183 39.8434 17.1429 35 17.1429C30.1561 17.1429 25.519 19.2189 22.1792 22.8571H2.73438V15.7143C2.73438 14.9266 3.3477 14.2857 4.10156 14.2857C5.34311 14.2857 63.9764 14.2857 65.8984 14.2857C66.6523 14.2857 67.2656 14.9266 67.2656 15.7143V22.8571Z" fill="#DFDFDF"/>
<path d="M39.1016 5.71423H30.8984C30.1433 5.71423 29.5312 6.35381 29.5312 7.14281C29.5312 7.93181 30.1433 8.57138 30.8984 8.57138H39.1016C39.8565 8.57138 40.4688 7.93181 40.4688 7.14281C40.4688 6.35381 39.8565 5.71423 39.1016 5.71423Z" fill="#DFDFDF"/>
<path d="M35 22.8572C28.2152 22.8572 22.6953 28.6249 22.6953 35.7143C22.6953 42.8037 28.2152 48.5715 35 48.5715C41.7848 48.5715 47.3047 42.8037 47.3047 35.7143C47.3047 28.6249 41.7848 22.8572 35 22.8572ZM35 45.7143C29.7229 45.7143 25.4297 41.2283 25.4297 35.7143C25.4297 30.2003 29.7229 25.7143 35 25.7143C40.2771 25.7143 44.5703 30.2003 44.5703 35.7143C44.5703 41.2283 40.2771 45.7143 35 45.7143Z" fill="#DFDFDF"/>
<path d="M35 28.5714C31.2307 28.5714 28.1641 31.7757 28.1641 35.7143C28.1641 36.5033 28.7762 37.1428 29.5312 37.1428C30.2863 37.1428 30.8984 36.5033 30.8984 35.7143C30.8984 33.3511 32.7384 31.4286 35 31.4286C35.755 31.4286 36.3672 30.789 36.3672 30C36.3672 29.211 35.755 28.5714 35 28.5714Z" fill="#DFDFDF"/>
<path d="M63.1641 17.1428H60.4297C59.6747 17.1428 59.0625 17.7824 59.0625 18.5714C59.0625 19.3604 59.6747 20 60.4297 20H63.1641C63.919 20 64.5312 19.3604 64.5312 18.5714C64.5312 17.7824 63.919 17.1428 63.1641 17.1428Z" fill="#DFDFDF"/>
<path d="M39.1016 5.71423H30.8984C30.1433 5.71423 29.5312 6.35381 29.5312 7.14281C29.5312 7.93181 30.1433 8.57138 30.8984 8.57138H39.1016C39.8565 8.57138 40.4688 7.93181 40.4688 7.14281C40.4688 6.35381 39.8565 5.71423 39.1016 5.71423Z" fill="#F2AF3C"/>
<path d="M35 22.8572C28.2152 22.8572 22.6953 28.6249 22.6953 35.7143C22.6953 42.8037 28.2152 48.5715 35 48.5715C41.7848 48.5715 47.3047 42.8037 47.3047 35.7143C47.3047 28.6249 41.7848 22.8572 35 22.8572ZM35 45.7143C29.7229 45.7143 25.4297 41.2283 25.4297 35.7143C25.4297 30.2003 29.7229 25.7143 35 25.7143C40.2771 25.7143 44.5703 30.2003 44.5703 35.7143C44.5703 41.2283 40.2771 45.7143 35 45.7143Z" fill="#F2AF3C"/>
<path d="M63.1641 17.1428H60.4297C59.6747 17.1428 59.0625 17.7824 59.0625 18.5714C59.0625 19.3604 59.6747 20 60.4297 20H63.1641C63.919 20 64.5312 19.3604 64.5312 18.5714C64.5312 17.7824 63.919 17.1428 63.1641 17.1428Z" fill="#F2AF3C"/>
</svg>
