<svg width="70" height="70" viewBox="0 0 70 70" fill="none" xmlns="http://www.w3.org/2000/svg">
<path d="M62.0067 67.502C61.4438 68.0735 61.4436 69.0003 62.0063 69.5716C62.5691 70.1429 63.4819 70.1428 64.0448 69.5713L67.9159 65.6411C68.1802 65.3727 68.3204 65.026 68.3366 64.6745C68.3548 64.2775 68.2147 63.8745 67.9162 63.5714L64.0464 59.6425C63.4836 59.0712 62.5708 59.0713 62.0079 59.6428C61.445 60.2144 61.4449 61.1411 62.0076 61.7124L63.4172 63.1436L64.8583 64.6067L63.4172 66.0699L62.0067 67.502Z" fill="#DFDFDF"/>
<path d="M68.3366 64.6745C68.3548 64.2775 68.2147 63.8745 67.9162 63.5714L64.0464 59.6425C63.4836 59.0712 62.5708 59.0713 62.0079 59.6428C61.445 60.2144 61.4449 61.1411 62.0076 61.7124L63.4172 63.1436H66.8965C67.6925 63.1436 68.3381 63.7988 68.3381 64.6067C68.3381 64.6295 68.3376 64.6521 68.3366 64.6745Z" fill="#DFDFDF"/>
<path d="M8.16318 8.92024C8.72609 9.49175 9.63892 9.4919 10.2016 8.92057C10.7644 8.34924 10.7642 7.42247 10.2013 6.85096L6.33025 2.92076C6.06592 2.65239 5.72443 2.51 5.37827 2.49362C4.98725 2.47512 4.59027 2.61738 4.29178 2.92043L0.421954 6.84937C-0.140778 7.4207 -0.140633 8.34747 0.42228 8.91898C0.985192 9.4905 1.89802 9.49064 2.46075 8.91931L3.87032 7.48821L5.3115 6.02501L6.75269 7.48821L8.16318 8.92024Z" fill="#DFDFDF"/>
<path d="M5.37827 2.49362C4.98725 2.47512 4.59027 2.61738 4.29178 2.92043L0.421954 6.84937C-0.140778 7.4207 -0.140633 8.34747 0.42228 8.91898C0.985192 9.4905 1.89802 9.49064 2.46075 8.91931L3.87032 7.48821V3.95575C3.87032 3.14751 4.51568 2.49208 5.3115 2.49208C5.33388 2.49208 5.35614 2.4926 5.37827 2.49362Z" fill="#DFDFDF"/>
<path d="M54.4681 8.36933e-05C53.672 8.36933e-05 53.0261 0.655305 53.0261 1.46329C53.0261 2.27127 53.672 2.92649 54.4681 2.92649L65.3407 2.95233C65.6894 2.95233 66.0151 3.05883 66.2884 3.24111C66.7699 3.5571 67.0921 4.10598 67.0921 4.72646L67.0921 15.0135C67.0921 15.7804 67.5424 16.777 68.5461 16.777C69.5473 16.777 69.9978 15.7852 70 15.0191L70 15.0135L70 15.011L69.9667 4.72643C69.9658 4.48848 69.9485 4.25356 69.9157 4.02339C69.5844 1.76333 67.6824 0.0168585 65.3826 8.36933e-05L65.3679 0L54.4681 8.36933e-05Z" fill="#DFDFDF"/>
<path d="M63.4172 66.0699L64.8583 64.6067L63.4172 63.1436L8.52967 63.1176C8.18095 63.1176 7.8552 63.0111 7.58191 62.8288C7.10042 62.5129 6.77823 61.964 6.77823 61.3435L6.77823 50.274C6.77823 49.5071 6.32794 48.5104 5.32427 48.5104C4.32305 48.5104 3.87252 49.5022 3.87033 50.2684V50.2765L3.90359 61.3435C3.90453 61.5815 3.92179 61.8164 3.95467 62.0466C4.02883 62.5525 4.18172 63.0328 4.40017 63.4736C4.84082 64.3628 5.54824 65.0919 6.41442 65.5486C7.03689 65.8768 7.74134 66.0644 8.48771 66.0699L8.50242 66.0699H63.4172Z" fill="#DFDFDF"/>
<path d="M3.87011 40.7232L3.8701 40.7207L3.87011 40.7151V40.7232Z" fill="#DFDFDF"/>
<path d="M3.87011 40.7232L3.8701 40.7207V42.6242C3.8701 43.4549 4.54474 44.1292 5.376 44.1292C6.29685 44.1292 6.77801 43.4591 6.77801 42.6242V40.7207C6.77801 38.4935 3.87649 38.4872 3.87011 40.7151V40.7232Z" fill="#DFDFDF"/>
<path d="M3.87011 29.6544L3.8701 29.6519L3.87011 7.17145V29.6544Z" fill="#DFDFDF"/>
<path d="M3.87011 29.6544L3.8701 29.6519L3.87032 32.6256C3.87032 33.4564 4.54496 34.1306 5.37621 34.1306C6.29706 34.1306 6.77801 33.4604 6.77801 32.6255V7.17706C6.77801 4.94984 3.87649 4.94349 3.87011 7.17145V29.6544Z" fill="#DFDFDF"/>
<path d="M20.4413 49.7827C20.4413 49.7827 20.4413 51.2873 22.1849 51.2873C23.9285 51.2873 23.9285 49.7827 23.9285 49.7827V35.3997C24.5121 34.2479 25.5024 33.672 26.8992 33.672C28.717 33.672 29.6498 34.5964 29.6976 36.4451V49.7827C29.6976 49.7827 29.6976 51.2873 31.4413 51.2873C33.1849 51.2873 33.1849 49.7827 33.1849 49.7827L33.1706 36.0095C33.3715 35.3126 33.7207 34.7512 34.2182 34.3253C34.7252 33.8898 35.3758 33.672 36.1699 33.672C37.1649 33.672 37.8777 33.9043 38.3082 34.3689C38.7387 34.8335 38.954 35.5643 38.954 36.5613V49.7827C38.954 49.7827 38.954 51.2873 40.6976 51.2873C42.4413 51.2873 42.4413 49.7827 42.4413 49.7827V35.4596C42.4221 33.5915 41.9916 32.1783 41.1497 31.2201C40.3173 30.2618 39.0449 29.7827 37.3323 29.7827C35.2849 29.7827 33.6968 30.5861 32.5678 32.1928C31.8024 30.5861 30.3817 29.7827 28.3056 29.7827C26.4688 29.7827 25.0098 30.3879 23.9285 31.5982V30.0731C23.9285 30.0731 23.9285 28.5684 22.1849 28.5684C20.4413 28.5684 20.4413 30.0731 20.4413 30.0731V49.7827Z" fill="#DFDFDF"/>
<path fill-rule="evenodd" clip-rule="evenodd" d="M48.2798 26.7718H55.7083C56.5043 26.7718 57.1277 26.4946 57.1277 25.6866C57.1277 24.8786 56.5043 24.6014 55.7083 24.6014H50.3475L53.6184 21.0088C54.0025 20.5804 54.3702 20.1589 54.7217 19.7445C55.0797 19.3231 55.3889 18.8912 55.6493 18.4487C55.9162 17.9991 56.1277 17.5321 56.284 17.0474C56.4402 16.5558 56.5183 16.022 56.5183 15.446C56.5183 14.7788 56.4076 14.1712 56.1863 13.6234C55.965 13.0755 55.6591 12.6084 55.2685 12.2221C54.878 11.8288 54.4028 11.5268 53.843 11.3161C53.2897 11.1054 52.6811 11 52.0171 11C51.3792 11 50.7804 11.0948 50.2206 11.2845C49.6673 11.4741 49.1758 11.7586 48.7462 12.1378C48.3166 12.5171 47.9553 12.9912 47.6624 13.5601C47.376 14.122 47.184 14.7753 47.0863 15.5198C47.0863 16.328 47.4545 16.8101 48.2503 16.8101C49.0462 16.8101 49.4143 16.3385 49.4143 15.5303C49.4143 15.3989 49.7368 14.6066 49.9081 14.3292C50.0448 14.1115 50.2075 13.9219 50.3963 13.7603C50.5916 13.5988 50.8129 13.4723 51.0602 13.381C51.3141 13.2897 51.5875 13.2441 51.8804 13.2441C52.1994 13.2441 52.4858 13.2932 52.7397 13.3916C53 13.4899 53.2213 13.6374 53.4036 13.8341C53.5859 14.0237 53.7258 14.2625 53.8235 14.5505C53.9276 14.8314 53.9797 15.158 53.9797 15.5303C53.9797 15.9377 53.9276 16.3275 53.8235 16.6998C53.7193 17.072 53.5696 17.4372 53.3743 17.7955C53.1855 18.1537 52.9447 18.5189 52.6518 18.8912C52.3589 19.2564 52.0302 19.6392 51.6656 20.0395L47.2816 24.7911C47.2613 24.8111 47.2418 24.8315 47.2229 24.8523C47.0777 25.0378 47 25.2883 47 25.6078C47 26.4036 47.4715 26.7718 48.2798 26.7718Z" fill="#DFDFDF"/>
<path d="M54.4681 8.36933e-05C53.672 8.36933e-05 53.0261 0.655305 53.0261 1.46329C53.0261 2.27127 53.672 2.92649 54.4681 2.92649L65.3407 2.95233C65.6894 2.95233 66.0151 3.05883 66.2884 3.24111C66.7699 3.5571 67.0921 4.10598 67.0921 4.72646L67.0921 15.0135C67.0921 15.7804 67.5424 16.777 68.5461 16.777C69.5473 16.777 69.9978 15.7852 70 15.0191L70 15.0135L70 15.011L69.9667 4.72643C69.9658 4.48848 69.9485 4.25356 69.9157 4.02339C69.5844 1.76333 67.6824 0.0168585 65.3826 8.36933e-05L65.3679 0L54.4681 8.36933e-05Z" fill="#F2AF3C"/>
<path d="M3.87011 40.7232L3.8701 40.7207L3.87011 40.7151V40.7232Z" fill="#F2AF3C"/>
<path d="M3.87011 29.6544L3.8701 29.6519L3.87011 7.17145V29.6544Z" fill="#F2AF3C"/>
<path d="M20.4413 49.7827C20.4413 49.7827 20.4413 51.2873 22.1849 51.2873C23.9285 51.2873 23.9285 49.7827 23.9285 49.7827V35.3997C24.5121 34.2479 25.5024 33.672 26.8992 33.672C28.717 33.672 29.6498 34.5964 29.6976 36.4451V49.7827C29.6976 49.7827 29.6976 51.2873 31.4413 51.2873C33.1849 51.2873 33.1849 49.7827 33.1849 49.7827L33.1706 36.0095C33.3715 35.3126 33.7207 34.7512 34.2182 34.3253C34.7252 33.8898 35.3758 33.672 36.1699 33.672C37.1649 33.672 37.8777 33.9043 38.3082 34.3689C38.7387 34.8335 38.954 35.5643 38.954 36.5613V49.7827C38.954 49.7827 38.954 51.2873 40.6976 51.2873C42.4413 51.2873 42.4413 49.7827 42.4413 49.7827V35.4596C42.4221 33.5915 41.9916 32.1783 41.1497 31.2201C40.3173 30.2618 39.0449 29.7827 37.3323 29.7827C35.2849 29.7827 33.6968 30.5861 32.5678 32.1928C31.8024 30.5861 30.3817 29.7827 28.3056 29.7827C26.4688 29.7827 25.0098 30.3879 23.9285 31.5982V30.0731C23.9285 30.0731 23.9285 28.5684 22.1849 28.5684C20.4413 28.5684 20.4413 30.0731 20.4413 30.0731V49.7827Z" fill="#F2AF3C"/>
</svg>
