<svg width="70" height="65" viewBox="0 0 70 65" fill="none" xmlns="http://www.w3.org/2000/svg">
<path d="M43.0175 65L35 61.5496L26.8922 64.99V51.737C26.8922 50.9592 27.5244 50.331 28.307 50.331C29.0897 50.331 29.7219 50.9592 29.7219 51.737V60.7219L35 58.4882L40.1677 60.712V59.8643C40.1677 59.0865 40.7999 58.4583 41.5825 58.4583C42.3652 58.4583 42.9974 59.0865 42.9974 59.8643V65H43.0175Z" fill="#F2AF3C"/>
<path d="M41.6026 56.6234C40.8199 56.6234 40.1878 55.9951 40.1878 55.2173V51.6273C40.1878 50.8495 40.8199 50.2213 41.6026 50.2213C42.3853 50.2213 43.0175 50.8495 43.0175 51.6273V55.2173C43.0175 55.9951 42.3853 56.6234 41.6026 56.6234Z" fill="#F2AF3C"/>
<path d="M57.4511 8.81683L12.5489 8.67722C11.7662 8.67722 11.1341 8.039 11.1341 7.26117C11.1341 6.48334 11.7662 5.8551 12.5489 5.8551L57.441 5.99471C58.2237 5.99471 58.8559 6.63293 58.8559 7.41076C58.8659 8.18858 58.2337 8.81683 57.4511 8.81683Z" fill="#F2AF3C"/>
<path d="M62.6689 16.7248C61.8863 16.7248 61.2541 16.0965 61.2541 15.3187V12.4268C61.2541 11.6489 61.8863 11.0207 62.6689 11.0207C63.4516 11.0207 64.0838 11.6489 64.0838 12.4268V15.3187C64.0838 16.0965 63.4516 16.7248 62.6689 16.7248Z" fill="#F2AF3C"/>
<path d="M62.6689 40.0397C62.5982 40.0397 62.5286 40.0345 62.4607 40.0246C61.7771 39.9248 61.2541 39.3411 61.2541 38.6336V37.3591V19.9158C61.2541 19.138 61.8863 18.5098 62.6689 18.5098C63.4516 18.5098 64.0838 19.138 64.0838 19.9158V38.6236C64.0838 39.4015 63.4516 40.0397 62.6689 40.0397Z" fill="#F2AF3C"/>
<path d="M7.33101 40.0397C6.54833 40.0397 5.91616 39.4114 5.91616 38.6336V12.4268C5.91616 11.6489 6.54833 11.0207 7.33101 11.0207C8.1137 11.0207 8.74586 11.6489 8.74586 12.4268V38.6236C8.74586 39.4015 8.1137 40.0397 7.33101 40.0397Z" fill="#F2AF3C"/>
<path d="M26.4707 45.1255L12.5389 45.0856C11.7562 45.0856 11.124 44.4474 11.124 43.6695C11.124 42.8917 11.7562 42.2635 12.5389 42.2635L26.4707 42.3034C27.2534 42.3034 27.8856 42.9416 27.8856 43.7194C27.8956 44.4972 27.2534 45.1255 26.4707 45.1255Z" fill="#F2AF3C"/>
<path d="M62.6689 13.8328C59.0566 13.8328 56.1466 11.0307 56.0362 7.45064C56.0061 6.67281 56.6282 6.02463 57.4109 6.00468C58.1936 5.97476 58.8458 6.59304 58.8759 7.37087C58.9362 9.41516 60.6019 11.0207 62.6689 11.0207C63.4516 11.0207 64.0838 11.6489 64.0838 12.4268C64.0838 13.2046 63.4516 13.8328 62.6689 13.8328Z" fill="#F2AF3C"/>
<path d="M7.33101 13.8328C6.54833 13.8328 5.91616 13.2046 5.91616 12.4268C5.91616 11.6489 6.54833 11.0207 7.33101 11.0207C9.41817 11.0207 11.124 9.33538 11.1341 7.27115C11.1441 6.49332 11.7662 5.84513 12.5589 5.87504C13.3416 5.88501 13.9738 6.51326 13.9638 7.29109C13.9537 10.901 10.9635 13.8328 7.33101 13.8328Z" fill="#F2AF3C"/>
<path d="M12.5489 45.0856C11.7863 45.0856 11.1541 44.4773 11.1341 43.7094C11.0839 41.6452 9.40813 40.0297 7.34105 40.0297C6.55837 40.0297 5.9262 39.4015 5.9262 38.6236C5.9262 37.8458 6.55837 37.2176 7.34105 37.2176C10.9635 37.2176 13.8835 40.0397 13.9738 43.6396C13.9939 44.4175 13.3717 45.0656 12.589 45.0856C12.569 45.0856 12.5589 45.0856 12.5489 45.0856Z" fill="#F2AF3C"/>
<path d="M44.3828 42.3561C44.7312 43.2432 44.957 44.191 45.0394 45.1789L57.4348 45.2052C56.655 45.2019 56.0262 44.575 56.0262 43.7992C56.0275 43.3157 56.0816 42.844 56.1829 42.3896L44.3828 42.3561Z" fill="#F2AF3C"/>
<path d="M58.8458 43.8092C58.8458 43.0313 58.2137 42.3931 57.431 42.3931L56.1829 42.3896C56.0816 42.844 56.0275 43.3157 56.0262 43.7992C56.0262 44.575 56.655 45.2019 57.4348 45.2052L57.441 45.2053C57.5944 45.2053 57.7419 45.1808 57.8801 45.1355C58.407 44.963 58.7972 44.4887 58.8498 43.9206C58.8477 43.8838 58.8463 43.8467 58.8458 43.8092Z" fill="#F2AF3C"/>
<path d="M62.4607 40.0246C61.7771 39.9248 61.2541 39.3411 61.2541 38.6336V37.3591C58.7343 37.9069 56.7411 39.886 56.1829 42.3896L57.431 42.3931C58.2137 42.3931 58.8458 43.0313 58.8458 43.8092C58.8463 43.8467 58.8477 43.8838 58.8498 43.9206C59.1185 41.8938 60.2566 40.129 62.4607 40.0246Z" fill="#F2AF3C"/>
<path d="M34.9097 51.757C31.7288 51.757 29.1399 49.1842 29.1399 46.023C29.1399 42.8618 31.7288 40.289 34.9097 40.289C38.0906 40.289 40.6795 42.8618 40.6795 46.023C40.6795 49.1842 38.0906 51.757 34.9097 51.757ZM34.9097 43.1111C33.2941 43.1111 31.9796 44.4175 31.9796 46.023C31.9796 47.6285 33.2941 48.9348 34.9097 48.9348C36.5252 48.9348 37.8397 47.6285 37.8397 46.023C37.8397 44.4175 36.5252 43.1111 34.9097 43.1111Z" fill="#DFDFDF"/>
<path d="M34.9097 51.757C31.7288 51.757 29.1399 49.1842 29.1399 46.023C29.1399 42.8618 31.7288 40.289 34.9097 40.289C38.0906 40.289 40.6795 42.8618 40.6795 46.023C40.6795 49.1842 38.0906 51.757 34.9097 51.757ZM34.9097 43.1111C33.2941 43.1111 31.9796 44.4175 31.9796 46.023C31.9796 47.6285 33.2941 48.9348 34.9097 48.9348C36.5252 48.9348 37.8397 47.6285 37.8397 46.023C37.8397 44.4175 36.5252 43.1111 34.9097 43.1111Z" fill="#DFDFDF"/>
<path d="M34.9097 56.1248C29.3004 56.1248 24.7448 51.5974 24.7448 46.023C24.7448 40.4485 29.3004 35.9212 34.9097 35.9212C39.2177 35.9212 42.9043 38.5917 44.3828 42.3561C44.7312 43.2432 44.957 44.191 45.0394 45.1789C45.0627 45.4572 45.0745 45.7387 45.0745 46.023C45.0745 51.5974 40.5189 56.1248 34.9097 56.1248ZM34.9097 38.7433C30.8658 38.7433 27.5846 42.0142 27.5846 46.023C27.5846 50.0418 30.8758 53.3027 34.9097 53.3027C38.9535 53.3027 42.2348 50.0318 42.2348 46.023C42.2348 42.0142 38.9535 38.7433 34.9097 38.7433Z" fill="#DFDFDF"/>
<path d="M65.4544 50.8541L43.3586 50.7145C42.5759 50.7145 41.9438 50.0763 41.9438 49.2985C41.9438 48.5206 42.586 46.8606 43.3586 46.8606L43.3687 47.8924L65.4544 48.032C66.3876 48.032 67.1602 47.2641 67.1602 46.3268V4.29483C67.1602 3.82614 66.9595 3.37739 66.6284 3.09817C66.4478 2.94859 66.1468 2.77906 65.7454 2.84886L65.5146 2.86881L4.52551 3.05828L4.4051 3.04831C3.89335 2.96853 3.54214 3.14803 3.34145 3.31756C3.02035 3.5868 2.83973 4.01561 2.83973 4.4843V18.5796C2.83973 19.3574 2.20757 19.9857 1.42488 19.9857C0.642202 19.9857 0 19.3574 0 18.5796V4.4843C0 3.18792 0.541858 1.98129 1.49513 1.17354C2.38819 0.415656 3.53211 0.0766021 4.7262 0.236157L65.4042 0.0367134C66.518 -0.112869 67.6017 0.196268 68.4647 0.934208C69.438 1.75193 70 2.9785 70 4.28486V46.3168C70.01 48.8198 67.963 50.8541 65.4544 50.8541Z" fill="#DFDFDF"/>
<path d="M4.55562 51.0436C2.04702 51.0436 0 49.0093 0 46.5162V23.3961C0 22.6183 0.632167 21.9901 1.41485 21.9901C2.19753 21.9901 2.8297 22.6183 2.8297 23.3961V46.5162C2.8297 47.4536 3.60235 48.2215 4.54558 48.2215L26.5209 48.1616C27.3036 48.1616 27.9358 48.7899 27.9358 49.5677C27.9358 50.3455 27.3036 50.9838 26.5209 50.9838L4.55562 51.0436Z" fill="#DFDFDF"/>
<path d="M50.6938 20.6638H18.9951C18.2124 20.6638 17.5803 20.0355 17.5803 19.2577C17.5803 18.4799 18.2124 17.8516 18.9951 17.8516H50.6938C51.4765 17.8516 52.1086 18.4799 52.1086 19.2577C52.1086 20.0355 51.4765 20.6638 50.6938 20.6638Z" fill="#DFDFDF"/>
<path d="M50.6938 26.0786H18.9951C18.2124 26.0786 17.5803 25.4504 17.5803 24.6726C17.5803 23.8947 18.2124 23.2665 18.9951 23.2665H50.6938C51.4765 23.2665 52.1086 23.8947 52.1086 24.6726C52.1086 25.4404 51.4765 26.0786 50.6938 26.0786Z" fill="#DFDFDF"/>
<path d="M43.9005 15.2588H25.949C25.1663 15.2588 24.5341 14.6306 24.5341 13.8528C24.5341 13.0749 25.1663 12.4467 25.949 12.4467H43.9005C44.6832 12.4467 45.3153 13.0749 45.3153 13.8528C45.3153 14.6306 44.6832 15.2588 43.9005 15.2588Z" fill="#DFDFDF"/>
<path d="M23.9621 32.2913H19.1155C18.3328 32.2913 17.7007 31.6631 17.7007 30.8852C17.7007 30.1074 18.3328 29.4792 19.1155 29.4792H23.9621C24.7448 29.4792 25.377 30.1074 25.377 30.8852C25.377 31.6631 24.7448 32.2913 23.9621 32.2913Z" fill="#DFDFDF"/>
<path d="M50.6637 32.2913H45.8171C45.0344 32.2913 44.4022 31.6631 44.4022 30.8852C44.4022 30.1074 45.0344 29.4792 45.8171 29.4792H50.6637C51.4464 29.4792 52.0785 30.1074 52.0785 30.8852C52.0785 31.6631 51.4464 32.2913 50.6637 32.2913Z" fill="#DFDFDF"/>
<path fill-rule="evenodd" clip-rule="evenodd" d="M34.9117 32.9447C33.7745 32.9447 32.8529 32.021 32.8529 30.8812C32.8529 29.7414 33.7745 28.8177 34.9117 28.8177C36.0489 28.8177 36.9705 29.7414 36.9705 30.8812C36.9705 32.021 36.0489 32.9447 34.9117 32.9447Z" fill="#DFDFDF"/>
<path d="M34.9097 51.757C31.7288 51.757 29.1399 49.1842 29.1399 46.023C29.1399 42.8618 31.7288 40.289 34.9097 40.289C38.0906 40.289 40.6795 42.8618 40.6795 46.023C40.6795 49.1842 38.0906 51.757 34.9097 51.757ZM34.9097 43.1111C33.2941 43.1111 31.9796 44.4175 31.9796 46.023C31.9796 47.6285 33.2941 48.9348 34.9097 48.9348C36.5252 48.9348 37.8397 47.6285 37.8397 46.023C37.8397 44.4175 36.5252 43.1111 34.9097 43.1111Z" fill="#DFDFDF"/>
<path d="M50.6938 26.0786H18.9951C18.2124 26.0786 17.5803 25.4504 17.5803 24.6726C17.5803 23.8947 18.2124 23.2665 18.9951 23.2665H50.6938C51.4765 23.2665 52.1086 23.8947 52.1086 24.6726C52.1086 25.4404 51.4765 26.0786 50.6938 26.0786Z" fill="#DFDFDF"/>
<path d="M43.9005 15.2588H25.949C25.1663 15.2588 24.5341 14.6306 24.5341 13.8528C24.5341 13.0749 25.1663 12.4467 25.949 12.4467H43.9005C44.6832 12.4467 45.3153 13.0749 45.3153 13.8528C45.3153 14.6306 44.6832 15.2588 43.9005 15.2588Z" fill="#DFDFDF"/>
</svg>
