<svg width="70" height="70" viewBox="0 0 70 70" fill="none" xmlns="http://www.w3.org/2000/svg">
<path d="M63.1048 67.2656H35.0112C17.2142 67.2656 2.73525 52.7913 2.73525 35C2.73525 17.2087 17.2142 2.73438 35.0112 2.73438C42.016 2.73438 48.7508 4.98709 54.302 9.13131H52.801C52.0458 9.13131 51.4334 9.74354 51.4334 10.4985C51.4334 11.2535 52.0458 11.8657 52.801 11.8657H57.9944C58.7496 11.8657 59.362 11.2535 59.362 10.4985V5.30674C59.362 4.55178 58.7496 3.93955 57.9944 3.93955C57.2392 3.93955 56.6268 4.55178 56.6268 5.30674V7.46758C50.4775 2.63512 42.9021 0 35.0112 0C25.6594 0 16.8673 3.64068 10.2545 10.2512C3.64185 16.8619 0 25.6512 0 35C0 44.3488 3.64185 53.1381 10.2545 59.7488C16.8673 66.3595 25.6594 70 35.0112 70H63.1048C63.86 70 64.4724 69.3878 64.4724 68.6328C64.4724 67.8779 63.86 67.2656 63.1048 67.2656Z" fill="#DFDFDF"/>
<path d="M14.7972 20.6732C14.1584 20.2706 13.3138 20.4621 12.911 21.1008C9.80623 26.0252 8.43587 31.9428 9.0528 37.7639C9.67877 43.6722 12.3424 49.244 16.5526 53.453C21.6418 58.5405 28.3266 61.0841 35.0116 61.0841C41.6965 61.0841 48.3813 58.5405 53.4705 53.453C63.6487 43.278 63.6487 26.7219 53.4705 16.547C49.2536 12.3316 43.6709 9.66802 37.751 9.04704C31.9176 8.43468 25.9911 9.81595 21.0633 12.935C20.4252 13.3391 20.2353 14.1837 20.6393 14.8216C21.0435 15.4596 21.8884 15.6492 22.5265 15.2455C31.6704 9.45747 43.8712 10.8181 51.5363 18.4808C60.648 27.5897 60.648 42.4108 51.5363 51.5197C46.9799 56.0746 40.9968 58.3519 35.0116 58.3514C29.0278 58.3507 23.0421 56.0736 18.4868 51.5197C10.7142 43.7495 9.37296 31.8405 15.225 22.5591C15.6278 21.9201 15.4363 21.0758 14.7972 20.6732Z" fill="#DFDFDF"/>
<path d="M20.4175 28.7142C18.2345 28.7142 16.4586 30.4895 16.4586 32.6718C16.4586 33.4268 17.071 34.039 17.8262 34.039C18.5814 34.039 19.1938 33.4268 19.1938 32.6718C19.1938 31.9973 19.7428 31.4486 20.4175 31.4486C21.4958 31.4486 21.6412 32.0669 21.6412 32.6718C21.6412 34.6491 18.8037 37.479 17.016 38.7977C16.54 39.1478 16.3425 39.7639 16.5267 40.3254C16.7111 40.8867 17.2353 41.2664 17.8262 41.2664H23.009C23.7642 41.2664 24.3766 40.6542 24.3766 39.8992C24.3766 39.1442 23.7642 38.532 23.009 38.532H21.3978C22.8732 36.9604 24.3766 34.8297 24.3766 32.672C24.3765 30.3047 22.7854 28.7142 20.4175 28.7142Z" fill="#DFDFDF"/>
<path d="M27.2582 28.7142C26.503 28.7142 25.8906 29.3265 25.8906 30.0814V34.9945C25.8906 35.7495 26.503 36.3617 27.2582 36.3617H30.6077V39.9186C30.6077 40.6736 31.2201 41.2858 31.9753 41.2858C32.7305 41.2858 33.343 40.6736 33.343 39.9186V30.0816C33.343 29.3266 32.7305 28.7144 31.9753 28.7144C31.2201 28.7144 30.6077 29.3266 30.6077 30.0816V33.6275H28.6259V30.0816C28.6259 29.3265 28.0135 28.7142 27.2582 28.7142Z" fill="#DFDFDF"/>
<path d="M37.6191 41.2666C38.1386 41.2666 38.6351 40.9692 38.8645 40.466L43.3381 30.6482C43.6512 29.9611 43.3477 29.1503 42.6605 28.8372C41.9728 28.5242 41.1622 28.8275 40.8489 29.5147L36.3753 39.3325C36.0622 40.0196 36.3657 40.8303 37.0529 41.1434C37.2369 41.2271 37.4296 41.2666 37.6191 41.2666Z" fill="#DFDFDF"/>
<path d="M48.857 41.2087C48.988 41.2481 49.1204 41.2668 49.2505 41.2668C49.8388 41.2668 50.382 40.8843 50.5598 40.292L53.5061 30.4742C53.6303 30.0604 53.5515 29.6119 53.2933 29.2652C53.0352 28.9185 52.6285 28.7142 52.1962 28.7142H46.3037C45.5485 28.7142 44.936 29.3265 44.936 30.0814C44.936 30.8364 45.5485 31.4486 46.3037 31.4486H50.3581L47.94 39.5064C47.723 40.2295 48.1335 40.9917 48.857 41.2087Z" fill="#DFDFDF"/>
<path d="M17.5194 16.1465C17.1585 16.1465 16.8058 16.2928 16.5515 16.5472C16.2973 16.8014 16.1509 17.1541 16.1509 17.5137C16.1509 17.8732 16.2972 18.226 16.5515 18.4803C16.8058 18.7346 17.1585 18.8809 17.5194 18.8809C17.879 18.8809 18.2317 18.7347 18.486 18.4803C18.7403 18.2258 18.8853 17.8732 18.8853 17.5137C18.8853 17.1541 18.7403 16.8014 18.486 16.5472C18.2317 16.2928 17.879 16.1465 17.5194 16.1465Z" fill="#DFDFDF"/>
<path d="M68.6317 67.2656H68.6133C67.8583 67.2656 67.2461 67.8779 67.2461 68.6328C67.2461 69.3878 67.8583 70 68.6133 70H68.6317C69.3867 70 69.9989 69.3878 69.9989 68.6328C69.9989 67.8779 69.3867 67.2656 68.6317 67.2656Z" fill="#DFDFDF"/>
<path d="M14.7972 20.6732C14.1584 20.2706 13.3138 20.4621 12.911 21.1008C9.80623 26.0252 8.43587 31.9428 9.0528 37.7639C9.67877 43.6722 12.3424 49.244 16.5526 53.453C21.6418 58.5405 28.3266 61.0841 35.0116 61.0841C41.6965 61.0841 48.3813 58.5405 53.4705 53.453C63.6487 43.278 63.6487 26.7219 53.4705 16.547C49.2536 12.3316 43.6709 9.66802 37.751 9.04704C31.9176 8.43468 25.9911 9.81595 21.0633 12.935C20.4252 13.3391 20.2353 14.1837 20.6393 14.8216C21.0435 15.4596 21.8884 15.6492 22.5265 15.2455C31.6704 9.45747 43.8712 10.8181 51.5363 18.4808C60.648 27.5897 60.648 42.4108 51.5363 51.5197C46.9799 56.0746 40.9968 58.3519 35.0116 58.3514C29.0278 58.3507 23.0421 56.0736 18.4868 51.5197C10.7142 43.7495 9.37296 31.8405 15.225 22.5591C15.6278 21.9201 15.4363 21.0758 14.7972 20.6732Z" fill="#F2AF3C"/>
<path d="M17.5194 16.1465C17.1585 16.1465 16.8058 16.2928 16.5515 16.5472C16.2973 16.8014 16.1509 17.1541 16.1509 17.5137C16.1509 17.8732 16.2972 18.226 16.5515 18.4803C16.8058 18.7346 17.1585 18.8809 17.5194 18.8809C17.879 18.8809 18.2317 18.7347 18.486 18.4803C18.7403 18.2258 18.8853 17.8732 18.8853 17.5137C18.8853 17.1541 18.7403 16.8014 18.486 16.5472C18.2317 16.2928 17.879 16.1465 17.5194 16.1465Z" fill="#F2AF3C"/>
<path d="M68.6317 67.2656H68.6133C67.8583 67.2656 67.2461 67.8779 67.2461 68.6328C67.2461 69.3878 67.8583 70 68.6133 70H68.6317C69.3867 70 69.9989 69.3878 69.9989 68.6328C69.9989 67.8779 69.3867 67.2656 68.6317 67.2656Z" fill="#F2AF3C"/>
</svg>
