<svg width="70" height="60" viewBox="0 0 70 60" fill="none" xmlns="http://www.w3.org/2000/svg">
<path d="M64.8517 22.0031H63.3517V13.0939C63.348 9.62233 61.9646 6.29398 59.505 3.83919C57.0453 1.3844 53.7104 0.00368544 50.2319 0H37.4631C37.1548 0 36.8591 0.122238 36.6411 0.339821C36.4231 0.557405 36.3006 0.852511 36.3006 1.16022C36.3006 1.46793 36.4231 1.76304 36.6411 1.98062C36.8591 2.1982 37.1548 2.32044 37.4631 2.32044H50.2319C53.0938 2.32378 55.8376 3.45991 57.8613 5.4796C59.885 7.4993 61.0234 10.2376 61.0267 13.0939V22.0031H59.5267C58.1618 22.0047 56.8532 22.5465 55.8881 23.5098C54.923 24.473 54.38 25.779 54.3785 27.1412V30.1505C53.6012 29.3349 52.6659 28.6856 51.6295 28.2418C50.5931 27.798 49.4771 27.569 48.3493 27.5688H21.6507C20.5229 27.569 19.4069 27.798 18.3705 28.2418C17.3341 28.6856 16.3988 29.3349 15.6215 30.1505V27.1412C15.62 25.779 15.077 24.473 14.1119 23.5098C13.1467 22.5465 11.8382 22.0047 10.4733 22.0031H8.97329V13.0939C8.97663 10.2376 10.115 7.4993 12.1387 5.4796C14.1624 3.45991 16.9061 2.32378 19.7681 2.32044H22.6992C23.0075 2.32044 23.3032 2.1982 23.5212 1.98062C23.7392 1.76304 23.8617 1.46793 23.8617 1.16022C23.8617 0.852511 23.7392 0.557405 23.5212 0.339821C23.3032 0.122238 23.0075 0 22.6992 0H19.7681C16.2896 0.00368544 12.9547 1.3844 10.495 3.83919C8.03539 6.29398 6.65195 9.62233 6.64826 13.0939V22.0031H5.14828C3.78336 22.0047 2.47479 22.5465 1.50964 23.5098C0.544497 24.473 0.00158232 25.779 0 27.1412V42.4309C0.00263753 44.8479 0.965818 47.165 2.67821 48.874C4.39061 50.583 6.71236 51.5443 9.13404 51.547H11.5421V58.8398C11.542 58.9922 11.572 59.1431 11.6304 59.2839C11.6888 59.4247 11.7744 59.5526 11.8824 59.6604C11.9904 59.7681 12.1186 59.8536 12.2596 59.9119C12.4007 59.9701 12.5519 60.0001 12.7046 60H19.2645C19.4172 60.0001 19.5684 59.9701 19.7095 59.9119C19.8506 59.8536 19.9788 59.7681 20.0867 59.6604C20.1947 59.5526 20.2803 59.4247 20.3387 59.2839C20.3971 59.1431 20.4271 58.9922 20.427 58.8398V51.547H49.5729V58.8398C49.5729 58.9922 49.6029 59.1431 49.6613 59.2839C49.7197 59.4247 49.8053 59.5526 49.9132 59.6604C50.0212 59.7681 50.1494 59.8536 50.2905 59.9119C50.4316 59.9701 50.5828 60.0001 50.7355 60H57.2954C57.4481 60.0001 57.5993 59.9701 57.7403 59.9119C57.8814 59.8536 58.0096 59.7681 58.1176 59.6604C58.2256 59.5526 58.3112 59.4247 58.3696 59.2839C58.428 59.1431 58.458 58.9922 58.4579 58.8398V51.547H60.866C61.1743 51.547 61.47 51.4247 61.688 51.2071C61.906 50.9896 62.0285 50.6945 62.0285 50.3867C62.0285 50.079 61.906 49.7839 61.688 49.5663C61.47 49.3488 61.1743 49.2265 60.866 49.2265H9.13404C7.32878 49.2246 5.598 48.508 4.32148 47.234C3.04496 45.96 2.32696 44.2326 2.32503 42.4309V27.1412C2.32573 26.3941 2.62341 25.6779 3.15272 25.1496C3.68203 24.6213 4.39972 24.3242 5.14828 24.3235H10.4733C11.2218 24.3244 11.9394 24.6216 12.4686 25.1498C12.9979 25.678 13.2956 26.3942 13.2965 27.1412V37.1165C13.2964 37.2688 13.3264 37.4198 13.3848 37.5606C13.4432 37.7014 13.5288 37.8293 13.6368 37.9371C13.7448 38.0448 13.873 38.1303 14.014 38.1885C14.1551 38.2468 14.3063 38.2768 14.459 38.2767H55.541C55.6937 38.2768 55.8449 38.2468 55.9859 38.1885C56.127 38.1303 56.2552 38.0448 56.3632 37.9371C56.4712 37.8293 56.5568 37.7014 56.6152 37.5606C56.6736 37.4198 56.7036 37.2688 56.7035 37.1165V27.1412C56.7044 26.3942 57.0021 25.678 57.5314 25.1498C58.0606 24.6216 58.7782 24.3244 59.5267 24.3235H64.8517C65.6003 24.3242 66.318 24.6213 66.8473 25.1496C67.3766 25.6779 67.6743 26.3941 67.675 27.1412V42.4309C67.6761 43.6776 67.3329 44.9005 66.6832 45.9653C66.5993 46.0954 66.5423 46.2408 66.5156 46.3932C66.4888 46.5455 66.4929 46.7017 66.5275 46.8524C66.5621 47.0032 66.6266 47.1455 66.7171 47.2711C66.8076 47.3966 66.9224 47.5028 67.0546 47.5834C67.1869 47.6641 67.334 47.7175 67.4872 47.7406C67.6404 47.7636 67.7968 47.7559 67.947 47.7178C68.0972 47.6797 68.2382 47.612 68.3618 47.5187C68.4854 47.4255 68.5891 47.3084 68.6667 47.1746C69.5403 45.746 70.0017 44.1045 70 42.4309V27.1412C69.9984 25.779 69.4555 24.473 68.4903 23.5098C67.5252 22.5465 66.2166 22.0047 64.8517 22.0031ZM56.1329 51.547V57.6796H51.898V51.547H56.1329ZM18.102 51.547V57.6796H13.8671V51.547H18.102ZM54.3785 35.9562H15.6215V35.9059C15.6233 34.3106 16.2591 32.7812 17.3894 31.6532C18.5197 30.5252 20.0522 29.8909 21.6507 29.8893H48.3493C49.9477 29.8909 51.4803 30.5252 52.6106 31.6532C53.7409 32.7812 54.3767 34.3106 54.3785 35.9059V35.9562ZM27.3401 1.16022C27.3401 0.852511 27.4626 0.557405 27.6806 0.339821C27.8986 0.122238 28.1943 0 28.5026 0H30.6616C30.9699 0 31.2656 0.122238 31.4836 0.339821C31.7016 0.557405 31.8241 0.852511 31.8241 1.16022C31.8241 1.46793 31.7016 1.76304 31.4836 1.98062C31.2656 2.1982 30.9699 2.32044 30.6616 2.32044H28.5026C28.1943 2.32044 27.8986 2.1982 27.6806 1.98062C27.4626 1.76304 27.3401 1.46793 27.3401 1.16022ZM19.7681 5.30387H50.2319C52.3014 5.30615 54.2854 6.12762 55.7487 7.58804C57.212 9.04847 58.0351 11.0286 58.0374 13.0939C58.0374 13.4016 57.9149 13.6967 57.6969 13.9143C57.4789 14.1319 57.1832 14.2541 56.8749 14.2541C56.5665 14.2541 56.2709 14.1319 56.0528 13.9143C55.8348 13.6967 55.7123 13.4016 55.7123 13.0939C55.7108 11.6438 55.1329 10.2535 54.1054 9.22807C53.078 8.20266 51.6849 7.62589 50.2319 7.62431H19.7681C18.315 7.62589 16.922 8.20266 15.8946 9.22807C14.8671 10.2535 14.2892 11.6438 14.2876 13.0939C14.2876 13.4016 14.1652 13.6967 13.9471 13.9143C13.7291 14.1319 13.4334 14.2541 13.1251 14.2541C12.8168 14.2541 12.5211 14.1319 12.3031 13.9143C12.0851 13.6967 11.9626 13.4016 11.9626 13.0939C11.9649 11.0286 12.788 9.04847 14.2513 7.58804C15.7146 6.12762 17.6986 5.30615 19.7681 5.30387Z" fill="#DFDFDF"/>
<path d="M64.9042 48.4728H64.8857C64.1308 48.4728 63.5186 49.0885 63.5186 49.8478C63.5186 50.6071 64.1308 51.2228 64.8857 51.2228H64.9042C65.6592 51.2228 66.2714 50.6071 66.2714 49.8478C66.2714 49.0885 65.6592 48.4728 64.9042 48.4728Z" fill="#DFDFDF"/>
<path d="M54.3785 30.1505C53.6012 29.3349 52.6659 28.6856 51.6295 28.2418C50.5931 27.798 49.4771 27.569 48.3493 27.5688H21.6507C20.5229 27.569 19.4069 27.798 18.3705 28.2418C17.3341 28.6856 16.3988 29.3349 15.6215 30.1505V35.9059C15.6233 34.3106 16.2591 32.7812 17.3894 31.6532C18.5197 30.5252 20.0522 29.8909 21.6507 29.8893H48.3493C49.9477 29.8909 51.4803 30.5252 52.6106 31.6532C53.7409 32.7812 54.3767 34.3106 54.3785 35.9059V30.1505Z" fill="#F2AF3C"/>
<path d="M27.3401 1.16022C27.3401 0.852511 27.4626 0.557405 27.6806 0.339821C27.8986 0.122238 28.1943 0 28.5026 0H30.6616C30.9699 0 31.2656 0.122238 31.4836 0.339821C31.7016 0.557405 31.8241 0.852511 31.8241 1.16022C31.8241 1.46793 31.7016 1.76304 31.4836 1.98062C31.2656 2.1982 30.9699 2.32044 30.6616 2.32044H28.5026C28.1943 2.32044 27.8986 2.1982 27.6806 1.98062C27.4626 1.76304 27.3401 1.46793 27.3401 1.16022Z" fill="#F2AF3C"/>
</svg>
